<?xml version="1.0" encoding="UTF-8" standalone="no"?>
<!-- Created with Inkscape (http://www.inkscape.org/) -->

<svg
   width="158.75mm"
   height="158.75mm"
   viewBox="0 0 158.75 158.75"
   version="1.1"
   id="svg1"
   xml:space="preserve"
   inkscape:version="1.4 (e7c3feb1, 2024-10-09)"
   sodipodi:docname="Blutregen-logo-icon.svg"
   xmlns:inkscape="http://www.inkscape.org/namespaces/inkscape"
   xmlns:sodipodi="http://sodipodi.sourceforge.net/DTD/sodipodi-0.dtd"
   xmlns="http://www.w3.org/2000/svg"
   xmlns:svg="http://www.w3.org/2000/svg"><sodipodi:namedview
     id="namedview1"
     pagecolor="#ffffff"
     bordercolor="#000000"
     borderopacity="0.25"
     inkscape:showpageshadow="2"
     inkscape:pageopacity="0.0"
     inkscape:pagecheckerboard="0"
     inkscape:deskcolor="#d1d1d1"
     inkscape:document-units="mm"
     inkscape:zoom="0.42508658"
     inkscape:cx="-72.926319"
     inkscape:cy="684.56642"
     inkscape:window-width="1424"
     inkscape:window-height="887"
     inkscape:window-x="290"
     inkscape:window-y="25"
     inkscape:window-maximized="0"
     inkscape:current-layer="group-R5"><inkscape:page
       x="0"
       y="0"
       width="158.75"
       height="158.75"
       id="page2"
       margin="0"
       bleed="0" /></sodipodi:namedview><defs
     id="defs1"><radialGradient
       fx="0"
       fy="0"
       cx="0"
       cy="0"
       r="1"
       gradientUnits="userSpaceOnUse"
       gradientTransform="matrix(3210.01,0,0,-3210.01,2250,2250)"
       spreadMethod="pad"
       id="radialGradient4"><stop
         style="stop-opacity:1;stop-color:#ffffff"
         offset="0"
         id="stop2" /><stop
         style="stop-opacity:1;stop-color:#ffffff"
         offset="0.709532"
         id="stop3" /><stop
         style="stop-opacity:1;stop-color:#dedede"
         offset="1"
         id="stop4" /></radialGradient></defs><g
     inkscape:label="Ebene 1"
     inkscape:groupmode="layer"
     id="layer1"
     transform="translate(-220)" /><g
     id="g1"
     inkscape:groupmode="layer"
     inkscape:label="1"
     transform="matrix(0.26458333,0,0,0.26458334,1e-5,0)"><g
       id="group-R5"
       transform="translate(-710.02585,96.42326)"><g
         id="g3"
         transform="matrix(7,0,0,7,-1529.5974,-3225.9306)"><g
           id="g2"
           transform="matrix(1.5869401,0,0,1.356947,-216.12855,-182.52621)"><path
             id="path253"
             d="m 2661.43,650.898 -15.12,4.09 -0.47,-1.078 -12.09,-26.762 27.68,-6.168 v 29.918"
             style="fill:#aa0000;fill-opacity:1;fill-rule:nonzero;stroke:none"
             transform="matrix(0.13333333,0,0,-0.13333333,0,600)" /><path
             id="path254"
             d="m 2661.43,577.699 v 12.391 l -15.51,-7.621 z"
             style="fill:#ff0000;fill-opacity:1;fill-rule:nonzero;stroke:none"
             transform="matrix(0.13333333,0,0,-0.13333333,0,600)" /><path
             id="path255"
             d="m 2661.43,679.371 -15.12,-24.383 15.12,-4.09 z"
             style="fill:#a02c2c;fill-opacity:1;fill-rule:nonzero;stroke:none"
             transform="matrix(0.13333333,0,0,-0.13333333,0,600)" /><path
             id="path256"
             d="m 2633.64,601.91 v -0.051 l 12.2,-19.339 0.08,-0.051 15.51,7.621 v 16.769 l -27.79,-4.949"
             style="fill:#aa0000;fill-opacity:1;fill-rule:nonzero;stroke:none"
             transform="matrix(0.13333333,0,0,-0.13333333,0,600)" /><path
             id="path257"
             d="m 2661.43,620.98 -27.68,6.168 -0.11,-0.257 V 601.91 l 27.79,4.949 v 14.121"
             style="fill:#d40000;fill-opacity:1;fill-rule:nonzero;stroke:none"
             transform="matrix(0.13333333,0,0,-0.13333333,0,600)" /><path
             id="path258"
             d="m 2661.43,650.898 15.13,4.09 0.45,-1.078 12.09,-26.762 -27.67,-6.168 v 29.918"
             style="fill:#ff0000;fill-opacity:1;fill-rule:nonzero;stroke:none"
             transform="matrix(0.13333333,0,0,-0.13333333,0,600)" /><path
             id="path259"
             d="m 2661.43,577.699 v 12.391 l 15.5,-7.621 z"
             style="fill:#aa0000;fill-opacity:1;fill-rule:nonzero;stroke:none"
             transform="matrix(0.13333333,0,0,-0.13333333,0,600)" /><path
             id="path260"
             d="m 2661.43,679.371 15.13,-24.383 -15.13,-4.09 z"
             style="fill:#d40000;fill-opacity:1;fill-rule:nonzero;stroke:none"
             transform="matrix(0.13333333,0,0,-0.13333333,0,600)" /><path
             id="path261"
             d="m 2689.2,601.91 v -0.051 l -12.19,-19.339 -0.08,-0.051 -15.5,7.621 v 16.769 l 27.77,-4.949"
             style="fill:#ff0000;fill-opacity:1;fill-rule:nonzero;stroke:none"
             transform="matrix(0.13333333,0,0,-0.13333333,0,600)" /><path
             id="path262"
             d="m 2661.43,620.98 27.67,6.168 0.1,-0.257 V 601.91 l -27.77,4.949 v 14.121"
             style="fill:#aa0000;fill-opacity:1;fill-rule:nonzero;stroke:none"
             transform="matrix(0.13333333,0,0,-0.13333333,0,600)"
             sodipodi:nodetypes="cccccc" /><path
             id="path263"
             d="m 2761.74,650.898 -15.14,4.09 -0.46,-1.078 -12.08,-26.762 27.68,-6.168 v 29.918"
             style="fill:#ff2a2a;fill-opacity:1;fill-rule:nonzero;stroke:none"
             transform="matrix(0.13333333,0,0,-0.13333333,0,600)" /><path
             id="path264"
             d="m 2761.74,577.699 v 12.391 l -15.52,-7.621 z"
             style="fill:#ff2a2a;fill-opacity:1;fill-rule:nonzero;stroke:none"
             transform="matrix(0.13333333,0,0,-0.13333333,0,600)" /><path
             id="path265"
             d="m 2761.74,679.371 -15.14,-24.383 15.14,-4.09 z"
             style="fill:#a02c2c;fill-opacity:1;fill-rule:nonzero;stroke:none"
             transform="matrix(0.13333333,0,0,-0.13333333,0,600)" /><path
             id="path266"
             d="m 2733.95,601.91 v -0.051 l 12.19,-19.339 0.08,-0.051 15.52,7.621 v 16.769 l -27.79,-4.949"
             style="fill:#aa0000;fill-opacity:1;fill-rule:nonzero;stroke:none"
             transform="matrix(0.13333333,0,0,-0.13333333,0,600)" /><path
             id="path267"
             d="m 2761.74,620.98 -27.68,6.168 -0.11,-0.257 V 601.91 l 27.79,4.949 v 14.121"
             style="fill:#d40000;fill-opacity:1;fill-rule:nonzero;stroke:none"
             transform="matrix(0.13333333,0,0,-0.13333333,0,600)" /><path
             id="path268"
             d="m 2761.74,650.898 15.12,4.09 0.45,-1.078 12.1,-26.762 -27.67,-6.168 v 29.918"
             style="fill:#aa0000;fill-opacity:1;fill-rule:nonzero;stroke:none"
             transform="matrix(0.13333333,0,0,-0.13333333,0,600)" /><path
             id="path269"
             d="m 2761.74,577.699 v 12.391 l 15.5,-7.621 z"
             style="fill:#aa0000;fill-opacity:1;fill-rule:nonzero;stroke:none"
             transform="matrix(0.13333333,0,0,-0.13333333,0,600)" /><path
             id="path270"
             d="m 2761.74,679.371 15.12,-24.383 -15.12,-4.09 z"
             style="fill:#d40000;fill-opacity:1;fill-rule:nonzero;stroke:none"
             transform="matrix(0.13333333,0,0,-0.13333333,0,600)" /><path
             id="path271"
             d="m 2789.51,601.91 v -0.051 l -12.2,-19.339 -0.07,-0.051 -15.5,7.621 v 16.769 l 27.77,-4.949"
             style="fill:#ff2a2a;fill-opacity:1;fill-rule:nonzero;stroke:none"
             transform="matrix(0.13333333,0,0,-0.13333333,0,600)" /><path
             id="path272"
             d="m 2761.74,620.98 27.67,6.168 0.1,-0.257 V 601.91 l -27.77,4.949 v 14.121"
             style="fill:#a02c2c;fill-opacity:1;fill-rule:nonzero;stroke:none"
             transform="matrix(0.13333333,0,0,-0.13333333,0,600)" /><path
             id="path273"
             d="m 2862.03,650.898 -15.12,4.09 -0.46,-1.078 -12.09,-26.762 27.67,-6.168 v 29.918"
             style="fill:#ff2a2a;fill-opacity:1;fill-rule:nonzero;stroke:none"
             transform="matrix(0.13333333,0,0,-0.13333333,0,600)" /><path
             id="path274"
             d="m 2862.03,577.699 v 12.391 l -15.51,-7.621 z"
             style="fill:#d40000;fill-opacity:1;fill-rule:nonzero;stroke:none"
             transform="matrix(0.13333333,0,0,-0.13333333,0,600)" /><path
             id="path275"
             d="m 2862.03,679.371 -15.12,-24.383 15.12,-4.09 z"
             style="fill:#aa0000;fill-opacity:1;fill-rule:nonzero;stroke:none"
             transform="matrix(0.13333333,0,0,-0.13333333,0,600)" /><path
             id="path276"
             d="m 2834.24,601.91 v -0.051 l 12.21,-19.339 0.07,-0.051 15.51,7.621 v 16.769 l -27.79,-4.949"
             style="fill:#aa0000;fill-opacity:1;fill-rule:nonzero;stroke:none"
             transform="matrix(0.13333333,0,0,-0.13333333,0,600)" /><path
             id="path277"
             d="m 2862.03,620.98 -27.67,6.168 -0.12,-0.257 V 601.91 l 27.79,4.949 v 14.121"
             style="fill:#d40000;fill-opacity:1;fill-rule:nonzero;stroke:none"
             transform="matrix(0.13333333,0,0,-0.13333333,0,600)" /><path
             id="path278"
             d="m 2862.03,650.898 15.13,4.09 0.46,-1.078 12.09,-26.762 -27.68,-6.168 v 29.918"
             style="fill:#d40000;fill-opacity:1;fill-rule:nonzero;stroke:none"
             transform="matrix(0.13333333,0,0,-0.13333333,0,600)" /><path
             id="path279"
             d="m 2862.03,577.699 v 12.391 l 15.51,-7.621 z"
             style="fill:#aa0000;fill-opacity:1;fill-rule:nonzero;stroke:none"
             transform="matrix(0.13333333,0,0,-0.13333333,0,600)" /><path
             id="path280"
             d="m 2862.03,679.371 15.13,-24.383 -15.13,-4.09 z"
             style="fill:#ff2a2a;fill-opacity:1;fill-rule:nonzero;stroke:none"
             transform="matrix(0.13333333,0,0,-0.13333333,0,600)" /><path
             id="path281"
             d="m 2889.8,601.91 v -0.051 l -12.18,-19.339 -0.08,-0.051 -15.51,7.621 v 16.769 l 27.77,-4.949"
             style="fill:#ff2a2a;fill-opacity:1;fill-rule:nonzero;stroke:none"
             transform="matrix(0.13333333,0,0,-0.13333333,0,600)" /><path
             id="path282"
             d="m 2862.03,620.98 27.68,6.168 0.09,-0.257 V 601.91 l -27.77,4.949 v 14.121"
             style="fill:#aa0000;fill-opacity:1;fill-rule:nonzero;stroke:none"
             transform="matrix(0.13333333,0,0,-0.13333333,0,600)" /></g><path
           id="path283"
           d="m 2535.64,1094.32 59.32,-24.93 -42.35,-10.19 z"
           style="fill:#ffce29;fill-opacity:1;fill-rule:nonzero;stroke:none"
           transform="matrix(0.13333333,0,0,-0.13333333,0,600)" /><path
           id="path284"
           d="m 2633.64,1035.12 -38.68,34.27 -42.35,-10.19 z"
           style="fill:#ff9b43;fill-opacity:1;fill-rule:nonzero;stroke:none"
           transform="matrix(0.13333333,0,0,-0.13333333,0,600)" /><path
           id="path285"
           d="M 2633.64,1035.12 2645,992.871 2552.61,1059.2 Z"
           style="fill:#ffce29;fill-opacity:1;fill-rule:nonzero;stroke:none"
           transform="matrix(0.13333333,0,0,-0.13333333,0,600)" /><path
           id="path286"
           d="M 2568.36,1023.89 2645,992.871 2552.61,1059.2 Z"
           style="fill:#ff9b43;fill-opacity:1;fill-rule:nonzero;stroke:none"
           transform="matrix(0.13333333,0,0,-0.13333333,0,600)" /><path
           id="path287"
           d="M 2568.36,1023.89 2645,992.871 2561.11,982.809 Z"
           style="fill:#f78851;fill-opacity:1;fill-rule:nonzero;stroke:none"
           transform="matrix(0.13333333,0,0,-0.13333333,0,600)" /><path
           id="path288"
           d="m 2649.27,938.359 -4.27,54.512 -83.89,-10.062 z"
           style="fill:#ff9b43;fill-opacity:1;fill-rule:nonzero;stroke:none"
           transform="matrix(0.13333333,0,0,-0.13333333,0,600)" /><path
           id="path289"
           d="m 2649.27,938.359 -18.23,-38.73 -69.93,83.18 z"
           style="fill:#e55f06;fill-opacity:1;fill-rule:nonzero;stroke:none"
           transform="matrix(0.13333333,0,0,-0.13333333,0,600)" /><path
           id="path290"
           d="m 2551.93,945.879 79.11,-46.25 -69.93,83.18 z"
           style="fill:#fe6c05;fill-opacity:1;fill-rule:nonzero;stroke:none"
           transform="matrix(0.13333333,0,0,-0.13333333,0,600)" /><path
           id="path291"
           d="m 2551.93,945.879 79.11,-46.25 -24.56,-34.449 z"
           style="fill:#ff8629;fill-opacity:1;fill-rule:nonzero;stroke:none"
           transform="matrix(0.13333333,0,0,-0.13333333,0,600)" /><path
           id="path292"
           d="m 2551.93,945.879 19.48,-104.399 35.07,23.7 z"
           style="fill:#ffa31e;fill-opacity:1;fill-rule:nonzero;stroke:none"
           transform="matrix(0.13333333,0,0,-0.13333333,0,600)" /><path
           id="path293"
           d="m 2551.93,945.879 19.48,-104.399 -49.22,72.989 z"
           style="fill:#fa960a;fill-opacity:1;fill-rule:nonzero;stroke:none"
           transform="matrix(0.13333333,0,0,-0.13333333,0,600)" /><path
           id="path294"
           d="m 2544.47,832.301 26.94,9.179 -49.22,72.989 z"
           style="fill:#f78851;fill-opacity:1;fill-rule:nonzero;stroke:none"
           transform="matrix(0.13333333,0,0,-0.13333333,0,600)" /><path
           id="path295"
           d="m 2544.47,832.301 -48.53,62.949 26.25,19.219 z"
           style="fill:#ff8629;fill-opacity:1;fill-rule:nonzero;stroke:none"
           transform="matrix(0.13333333,0,0,-0.13333333,0,600)" /><path
           id="path296"
           d="m 2544.47,832.301 -48.53,62.949 17.2,-66.238 z"
           style="fill:#fe6c05;fill-opacity:1;fill-rule:nonzero;stroke:none"
           transform="matrix(0.13333333,0,0,-0.13333333,0,600)" /><path
           id="path297"
           d="m 2472.23,881.02 23.71,14.23 17.2,-66.238 z"
           style="fill:#e55f06;fill-opacity:1;fill-rule:nonzero;stroke:none"
           transform="matrix(0.13333333,0,0,-0.13333333,0,600)" /><path
           id="path298"
           d="m 2472.23,881.02 13.3,-48.719 27.61,-3.289 z"
           style="fill:#fe6c05;fill-opacity:1;fill-rule:nonzero;stroke:none"
           transform="matrix(0.13333333,0,0,-0.13333333,0,600)" /><path
           id="path299"
           d="m 2472.23,881.02 13.3,-48.719 -35.12,47.469 z"
           style="fill:#ff9b43;fill-opacity:1;fill-rule:nonzero;stroke:none"
           transform="matrix(0.13333333,0,0,-0.13333333,0,600)" /><path
           id="path300"
           d="m 2452.3,844.59 33.23,-12.289 -35.12,47.469 z"
           style="fill:#e55f06;fill-opacity:1;fill-rule:nonzero;stroke:none"
           transform="matrix(0.13333333,0,0,-0.13333333,0,600)" /><path
           id="path301"
           d="m 2452.3,844.59 -23.09,13.5 21.2,21.68 z"
           style="fill:#e55f06;fill-opacity:1;fill-rule:nonzero;stroke:none"
           transform="matrix(0.13333333,0,0,-0.13333333,0,600)" /><path
           id="path302"
           d="m 2410.27,879.891 18.94,-21.801 21.2,21.68 z"
           style="fill:#fe6c05;fill-opacity:1;fill-rule:nonzero;stroke:none"
           transform="matrix(0.13333333,0,0,-0.13333333,0,600)" /><path
           id="path303"
           d="m 2585.7,925.781 13.5,26.918 28.42,14.043 133.3,-89.16 -175.22,48.199"
           style="fill:#91f0ff;fill-opacity:1;fill-rule:nonzero;stroke:none"
           transform="matrix(0.13333333,0,0,-0.13333333,0,600)" /><path
           id="path304"
           d="m 2585.7,925.781 98.93,-132.972 76.29,84.773 z"
           style="fill:#0ba5f4;fill-opacity:1;fill-rule:nonzero;stroke:none"
           transform="matrix(0.13333333,0,0,-0.13333333,0,600)" /><path
           id="path305"
           d="m 2585.7,925.781 98.93,-132.972 -170.86,21.371 z"
           style="fill:#29bbf1;fill-opacity:1;fill-rule:nonzero;stroke:none"
           transform="matrix(0.13333333,0,0,-0.13333333,0,600)" /><path
           id="path306"
           d="m 2585.7,925.781 -63.79,-43.101 -8.14,-68.5 z"
           style="fill:#68f3fb;fill-opacity:1;fill-rule:nonzero;stroke:none"
           transform="matrix(0.13333333,0,0,-0.13333333,0,600)" /><path
           id="path307"
           d="m 2494.02,835.199 27.89,47.481 -8.14,-68.5 z"
           style="fill:#84cde0;fill-opacity:1;fill-rule:nonzero;stroke:none"
           transform="matrix(0.13333333,0,0,-0.13333333,0,600)" /><path
           id="path308"
           d="m 2494.02,835.199 v -56.898 l 19.75,35.879 z"
           style="fill:#6bb6ef;fill-opacity:1;fill-rule:nonzero;stroke:none"
           transform="matrix(0.13333333,0,0,-0.13333333,0,600)" /><path
           id="path309"
           d="m 2519.87,753.148 164.76,39.661 -170.86,21.371 z"
           style="fill:#2145a2;fill-opacity:1;fill-rule:nonzero;stroke:none"
           transform="matrix(0.13333333,0,0,-0.13333333,0,600)" /><path
           id="path310"
           d="m 2519.87,753.148 164.76,39.661 -170.86,21.371 z"
           style="fill:#4170ce;fill-opacity:1;fill-rule:nonzero;stroke:none"
           transform="matrix(0.13333333,0,0,-0.13333333,0,600)" /><path
           id="path311"
           d="m 2519.87,753.148 164.76,39.661 -142.78,-79.27 z"
           style="fill:#5380c9;fill-opacity:1;fill-rule:nonzero;stroke:none"
           transform="matrix(0.13333333,0,0,-0.13333333,0,600)" /><path
           id="path312"
           d="m 2591.68,700.582 92.95,92.227 -142.78,-79.27 z"
           style="fill:#4165a3;fill-opacity:1;fill-rule:nonzero;stroke:none"
           transform="matrix(0.13333333,0,0,-0.13333333,0,600)" /><path
           id="path313"
           d="m 2591.68,700.582 92.95,92.227 v -92.227 z"
           style="fill:#175ab2;fill-opacity:1;fill-rule:nonzero;stroke:none"
           transform="matrix(0.13333333,0,0,-0.13333333,0,600)" /><path
           id="path314"
           d="m 2765.08,700.582 -80.45,92.227 v -92.227 z"
           style="fill:#0951b2;fill-opacity:1;fill-rule:nonzero;stroke:none"
           transform="matrix(0.13333333,0,0,-0.13333333,0,600)" /><path
           id="path315"
           d="m 2519.87,753.148 -25.85,25.153 19.75,35.879 z"
           style="fill:#6191d6;fill-opacity:1;fill-rule:nonzero;stroke:none"
           transform="matrix(0.13333333,0,0,-0.13333333,0,600)" /><path
           id="path316"
           d="m 2519.87,753.148 -25.85,25.153 47.83,-64.762 z"
           style="fill:#6076df;fill-opacity:1;fill-rule:nonzero;stroke:none"
           transform="matrix(0.13333333,0,0,-0.13333333,0,600)" /><path
           id="path317"
           d="m 2689.33,966.742 h -61.71 l 133.3,-89.16 z"
           style="fill:#85e8fb;fill-opacity:1;fill-rule:nonzero;stroke:none"
           transform="matrix(0.13333333,0,0,-0.13333333,0,600)" /><path
           id="path318"
           d="m 2689.33,966.742 45.85,41.758 25.74,-130.918 z"
           style="fill:#7ce1f2;fill-opacity:1;fill-rule:nonzero;stroke:none"
           transform="matrix(0.13333333,0,0,-0.13333333,0,600)" /><path
           id="path319"
           d="m 2855.51,929.789 -120.33,78.711 25.74,-130.918 z"
           style="fill:#4bd4f7;fill-opacity:1;fill-rule:nonzero;stroke:none"
           transform="matrix(0.13333333,0,0,-0.13333333,0,600)" /><path
           id="path320"
           d="m 2855.51,929.789 -120.33,78.711 65.77,22.92 z"
           style="fill:#70e1fd;fill-opacity:1;fill-rule:nonzero;stroke:none"
           transform="matrix(0.13333333,0,0,-0.13333333,0,600)" /><path
           id="path321"
           d="m 2855.51,929.789 v 92.661 l -54.56,8.97 z"
           style="fill:#69cafb;fill-opacity:1;fill-rule:nonzero;stroke:none"
           transform="matrix(0.13333333,0,0,-0.13333333,0,600)" /><path
           id="path322"
           d="m 2855.51,929.789 v 92.661 l 46.07,-28.899 z"
           style="fill:#54a9ef;fill-opacity:1;fill-rule:nonzero;stroke:none"
           transform="matrix(0.13333333,0,0,-0.13333333,0,600)" /><path
           id="path323"
           d="m 2855.51,929.789 79.95,20.91 -33.88,42.852 z"
           style="fill:#42a3e6;fill-opacity:1;fill-rule:nonzero;stroke:none"
           transform="matrix(0.13333333,0,0,-0.13333333,0,600)" /><path
           id="path324"
           d="m 2855.51,929.789 79.95,20.91 14.95,-36.867 z"
           style="fill:#1f73ca;fill-opacity:1;fill-rule:nonzero;stroke:none"
           transform="matrix(0.13333333,0,0,-0.13333333,0,600)" /><path
           id="path325"
           d="m 2855.51,929.789 v -94.238 l -94.59,42.031 z"
           style="fill:#0da4f4;fill-opacity:1;fill-rule:nonzero;stroke:none"
           transform="matrix(0.13333333,0,0,-0.13333333,0,600)" /><path
           id="path326"
           d="m 2855.51,929.789 v -94.238 l 94.9,78.281 z"
           style="fill:#0b8eed;fill-opacity:1;fill-rule:nonzero;stroke:none"
           transform="matrix(0.13333333,0,0,-0.13333333,0,600)" /><path
           id="path327"
           d="m 2991.27,891.898 -135.76,-56.347 94.9,78.281 z"
           style="fill:#0b68d4;fill-opacity:1;fill-rule:nonzero;stroke:none"
           transform="matrix(0.13333333,0,0,-0.13333333,0,600)" /><path
           id="path328"
           d="m 2991.27,891.898 -135.76,-56.347 165.64,10.519 z"
           style="fill:#0863b4;fill-opacity:1;fill-rule:nonzero;stroke:none"
           transform="matrix(0.13333333,0,0,-0.13333333,0,600)" /><path
           id="path329"
           d="m 3025.16,792.809 -169.65,42.742 165.64,10.519 z"
           style="fill:#042d9f;fill-opacity:1;fill-rule:nonzero;stroke:none"
           transform="matrix(0.13333333,0,0,-0.13333333,0,600)" /><path
           id="path330"
           d="m 3025.16,792.809 -169.65,42.742 154.7,-87.141 z"
           style="fill:#032f87;fill-opacity:1;fill-rule:nonzero;stroke:none"
           transform="matrix(0.13333333,0,0,-0.13333333,0,600)" /><path
           id="path331"
           d="m 2970.35,713.539 -114.84,122.012 154.7,-87.141 z"
           style="fill:#02237d;fill-opacity:1;fill-rule:nonzero;stroke:none"
           transform="matrix(0.13333333,0,0,-0.13333333,0,600)" /><path
           id="path332"
           d="m 2970.35,713.539 -114.84,122.012 58.03,-134.969 z"
           style="fill:#032f87;fill-opacity:1;fill-rule:nonzero;stroke:none"
           transform="matrix(0.13333333,0,0,-0.13333333,0,600)" /><path
           id="path333"
           d="m 2842.78,700.582 12.73,134.969 58.03,-134.969 z"
           style="fill:#03408d;fill-opacity:1;fill-rule:nonzero;stroke:none"
           transform="matrix(0.13333333,0,0,-0.13333333,0,600)" /><path
           id="path334"
           d="m 2842.78,700.582 12.73,134.969 -90.43,-134.969 z"
           style="fill:#022e90;fill-opacity:1;fill-rule:nonzero;stroke:none"
           transform="matrix(0.13333333,0,0,-0.13333333,0,600)" /><path
           id="path335"
           d="m 2684.63,792.809 170.88,42.742 -94.59,42.031 z"
           style="fill:#0876dd;fill-opacity:1;fill-rule:nonzero;stroke:none"
           transform="matrix(0.13333333,0,0,-0.13333333,0,600)" /><path
           id="path336"
           d="m 2684.63,792.809 170.88,42.742 -90.43,-134.969 z"
           style="fill:#0539b3;fill-opacity:1;fill-rule:nonzero;stroke:none"
           transform="matrix(0.13333333,0,0,-0.13333333,0,600)" /></g></g></g></svg>
